# xmcd CD database file
#
# Track frame offsets:
#	150
#	24620
#	55595
#	86872
#	111095
#	124617
#	160297
#
# Disc length: 2562 seconds
#
# Revision: 0
# Processed by: cddbd v1.5.1PL0 Copyright (c) Steve Scherf et al.
# Submitted via: CDex 1.51
#
DISCID=530a0007
DTITLE=Delirium - Delirium
DYEAR=2002
DGENRE=Jazz
TTITLE0=1998
TTITLE1=1334
TTITLE2=Ensin oli apina
TTITLE3=Turku Boogie
TTITLE4=Delirium tremens
TTITLE5=Lux
TTITLE6=Are We Finished?
EXTD=YEAR: 2002
EXTT0=
EXTT1=
EXTT2=
EXTT3=
EXTT4=
EXTT5=
EXTT6=
PLAYORDER=
